<?xml version="1.0" encoding="UTF-8" standalone="no"?>
<svg
   xmlns:dc="http://purl.org/dc/elements/1.1/"
   xmlns:cc="http://creativecommons.org/ns#"
   xmlns:rdf="http://www.w3.org/1999/02/22-rdf-syntax-ns#"
   xmlns:svg="http://www.w3.org/2000/svg"
   xmlns="http://www.w3.org/2000/svg"
   xmlns:xlink="http://www.w3.org/1999/xlink"
   xmlns:sodipodi="http://sodipodi.sourceforge.net/DTD/sodipodi-0.dtd"
   xmlns:inkscape="http://www.inkscape.org/namespaces/inkscape"
   width="210mm"
   height="297mm"
   viewBox="0 0 210 297"
   version="1.1"
   id="svg8"
   inkscape:version="1.0.2-2 (e86c870879, 2021-01-15)"
   sodipodi:docname="b_1.svg">
  <defs
     id="defs2">
    <symbol
       id="staff">
      <title
         id="title210">Staff</title>
      <path
         sodipodi:nodetypes="ccccccccccccccccccccccccc"
         inkscape:connector-curvature="0"
         d="m 0,19.092754 v -0.439708 h 19.049868 v 0.439708 z m 0,-4.663279 v -0.439684 h 19.049868 v 0.439684 z M 0,9.7662206 v -0.439711 h 19.049868 v 0.439711 z M 0,5.1029394 V 4.6632548 H 19.049868 V 5.1029394 Z M 0,0.43968458 V 0 h 19.049868 v 0.43968458 z"
         id="path212"
         style="stroke-width:0.264583" />
    </symbol>
    <symbol
       id="ms_note_1">
      <title
         id="title1292">note 1</title>
      <path
         d="M 3.3176898,0 C 1.4853179,0 -7.9371825e-5,1.0505175 0,2.3463224 5.2919842e-5,3.6420531 1.4853973,4.692486 3.3176898,4.692486 5.1499823,4.692486 6.6353531,3.6420531 6.635406,2.3463224 6.635459,1.0505175 5.1500617,0 3.3176898,0 Z m 1.457616,1.9548501 C 5.0824342,3.1013426 4.6788917,4.205388 3.8739498,4.4211293 3.0690079,4.6367912 2.1674137,3.8824006 1.860206,2.7359107 1.5529983,1.5894182 1.9565408,0.48520085 2.7615356,0.26955485 2.8587965,0.24341402 3.0621552,0.2334551 3.0621552,0.2334551 c 0.7322608,0 1.4485673,0.7339674 1.7131506,1.721395 z"
         inkscape:connector-curvature="0"
         sodipodi:nodetypes="sssssssssss"
         id="path1294"
         style="stroke-width:0.264583" />
    </symbol>
  </defs>
  <sodipodi:namedview
     id="base"
     pagecolor="#ffffff"
     bordercolor="#666666"
     borderopacity="1.0"
     inkscape:pageopacity="0.0"
     inkscape:pageshadow="2"
     inkscape:zoom="0.49497475"
     inkscape:cx="-88.571429"
     inkscape:cy="560"
     inkscape:document-units="mm"
     inkscape:current-layer="layer1"
     inkscape:document-rotation="0"
     showgrid="false"
     inkscape:window-width="1431"
     inkscape:window-height="1030"
     inkscape:window-x="96"
     inkscape:window-y="0"
     inkscape:window-maximized="0" />
  <metadata
     id="metadata5">
    <rdf:RDF>
      <cc:Work
         rdf:about="">
        <dc:format>image/svg+xml</dc:format>
        <dc:type
           rdf:resource="http://purl.org/dc/dcmitype/StillImage" />
        <dc:title></dc:title>
      </cc:Work>
    </rdf:RDF>
  </metadata>
  <g
     inkscape:label="Layer 1"
     inkscape:groupmode="layer"
     id="layer1">
    <use
       xlink:href="#staff"
       id="use2316"
       x="0"
       y="0"
       width="100%"
       height="100%"
       transform="matrix(11.137453,0,0,6.0934474,-0.04682622,90.239337)" />
    <use
       xlink:href="#ms_note_1"
       id="use2180"
       x="0"
       y="0"
       width="100%"
       height="100%"
       transform="matrix(5.0238968,0,0,5.7541891,88.213207,134.85048)" />
  </g>
</svg>
