<?xml version="1.0" encoding="UTF-8" standalone="no"?>
<svg
   xmlns:dc="http://purl.org/dc/elements/1.1/"
   xmlns:cc="http://creativecommons.org/ns#"
   xmlns:rdf="http://www.w3.org/1999/02/22-rdf-syntax-ns#"
   xmlns:svg="http://www.w3.org/2000/svg"
   xmlns="http://www.w3.org/2000/svg"
   xmlns:xlink="http://www.w3.org/1999/xlink"
   xmlns:sodipodi="http://sodipodi.sourceforge.net/DTD/sodipodi-0.dtd"
   xmlns:inkscape="http://www.inkscape.org/namespaces/inkscape"
   width="210mm"
   height="297mm"
   viewBox="0 0 210 297"
   version="1.1"
   id="svg8"
   inkscape:version="1.0.2-2 (e86c870879, 2021-01-15)"
   sodipodi:docname="d_maj.svg">
  <defs
     id="defs2">
    <symbol
       id="staff">
      <title
         id="title210">Staff</title>
      <path
         sodipodi:nodetypes="ccccccccccccccccccccccccc"
         inkscape:connector-curvature="0"
         d="m 0,19.092754 v -0.439708 h 19.049868 v 0.439708 z m 0,-4.663279 v -0.439684 h 19.049868 v 0.439684 z M 0,9.7662206 v -0.439711 h 19.049868 v 0.439711 z M 0,5.1029394 V 4.6632548 H 19.049868 V 5.1029394 Z M 0,0.43968458 V 0 h 19.049868 v 0.43968458 z"
         id="path212"
         style="stroke-width:0.264583" />
    </symbol>
    <symbol
       id="ms_g_clef">
      <title
         id="title62">G clef</title>
      <path
         d="m 1.7361593,28.402465 c 0.075009,-0.853202 0.616294,-1.549082 1.3781876,-1.750695 0.9213056,-0.243673 1.6601017,0.331497 1.9637904,0.966602 0.2573073,0.537793 0.2563019,1.233488 -0.042995,1.69508 -0.3839104,0.591503 -1.1285008,0.913686 -1.7127802,0.724297 -0.024871,0.56941 0.8694738,1.014386 1.7122775,0.949193 1.1722894,-0.09099 2.025994,-0.7366 2.3517754,-1.788584 C 7.68722,28.226755 7.5359313,27.204167 7.4184298,26.440191 7.3544271,26.024398 7.2044348,24.827264 7.0633325,24.109582 5.5801313,24.488968 3.9765446,24.165568 2.5999445,23.131894 1.2613645,22.126953 0.30595411,20.489209 0.07026333,18.674088 -0.13603229,17.085239 0.12124854,15.837675 0.71976245,14.725526 2.0759637,12.205819 4.0611584,10.713437 5.2258277,9.5619967 4.9760346,8.0487917 4.8457538,6.4182175 5.0076523,5.1075246 5.2227321,3.3663281 6.0068248,1.0454037 7.4289338,0.12404524 7.7448198,-0.08068934 8.0508105,-0.04391226 8.263218,0.32393784 8.9422182,1.4999049 9.3393048,3.0995223 9.4662255,4.4052411 9.6258221,6.0475627 9.095703,8.0087602 8.4766044,9.0807725 7.7122232,10.404562 7.0994217,11.185771 6.1363384,12.060722 c 0.055986,0.694901 0.2505868,1.998159 0.3954991,3.11269 2.6432669,-0.148193 3.9148015,1.724422 4.1956835,3.460459 0.437991,2.706106 -1.4053083,4.559221 -3.0536889,5.239597 0.020108,0.341895 0.2093913,1.697699 0.303874,2.27883 0.2811198,1.727959 0.3098006,3.000949 -0.438785,4.108257 C 6.9404336,31.145348 6.0777332,31.530052 5.0060384,31.569448 3.0621446,31.641441 1.600772,29.939456 1.7365562,28.402465 Z M 4.292854,19.292631 c -0.2226204,1.102095 0.09398,1.755722 1.0393892,2.384319 0.5281877,0.35097 0.3250935,0.72943 -0.458814,0.219154 C 3.77054,21.178025 3.2016594,19.9307 3.280955,18.660488 3.387344,16.956069 4.7183305,15.703267 5.9794405,15.280886 5.8633413,14.379318 5.7538302,13.472776 5.614633,12.511704 4.5345509,13.294871 3.4494417,14.296689 2.7160432,15.219582 1.723671,16.468283 1.1762745,17.746485 1.1889745,19.086494 c 0.023019,2.4452 1.8422668,3.992854 3.512158,4.42296 0.8243094,0.212302 1.7559867,0.1846 2.3297886,-0.01296 C 6.8904273,22.706073 6.215925,17.886132 6.215925,17.351251 5.2958365,17.630016 4.468749,18.421226 4.292854,19.292419 Z m 5.1938767,0.450585 C 9.1098052,18.140238 7.9949305,17.371147 6.8028238,17.306298 c 0.1549135,1.110827 0.7145073,5.373899 0.8129058,6.02959 1.4286707,-0.729801 2.1672021,-2.332858 1.8710011,-3.592672 z M 7.9699273,2.7626813 C 6.850634,2.5760976 5.9171311,4.7287206 5.7295415,5.9929792 5.5632244,7.1133044 5.5795227,8.073345 5.7536186,9.1074425 6.8780977,8.2481023 7.8979871,7.0848352 8.444193,5.8235136 8.8028886,4.9949709 9.3379819,2.9907786 7.9696098,2.7627077 Z"
         inkscape:connector-curvature="0"
         id="path64"
         style="stroke-width:0.264583" />
    </symbol>
    <symbol
       id="ms_sharp">
      <title
         id="title122">Sharp</title>
      <path
         inkscape:connector-curvature="0"
         d="M 3.0525244,0 2.4770027,0.06339417 V 3.6192354 L 1.3745104,3.9116079 V 0.50380106 L 0.79901521,0.56719523 V 4.064172 L 0,4.2758677 V 5.7469696 L 0.79901521,5.5352738 V 8.6770792 L 0,8.888775 v 1.470477 l 0.79901521,-0.211719 v 3.293639 L 1.3745104,13.377751 V 9.9943126 L 2.4770027,9.7019745 v 3.2352725 l 0.5755217,-0.06342 V 9.5493628 L 3.8561169,9.3363997 V 7.8659355 L 3.0525244,8.0789066 V 4.9371012 L 3.8561169,4.7241301 V 3.2536659 L 3.0525244,3.466637 Z M 2.4770027,5.0898002 V 8.2310023 L 1.3745104,8.5233404 V 5.381535 Z"
         sodipodi:nodetypes="cccccccccccccccccccccccccccccccccc"
         id="path124"
         style="stroke-width:0.264583" />
    </symbol>
  </defs>
  <sodipodi:namedview
     id="base"
     pagecolor="#ffffff"
     bordercolor="#666666"
     borderopacity="1.0"
     inkscape:pageopacity="0.0"
     inkscape:pageshadow="2"
     inkscape:zoom="0.35"
     inkscape:cx="-18.312711"
     inkscape:cy="560"
     inkscape:document-units="mm"
     inkscape:current-layer="layer1"
     inkscape:document-rotation="0"
     showgrid="false"
     inkscape:window-width="1431"
     inkscape:window-height="1030"
     inkscape:window-x="96"
     inkscape:window-y="0"
     inkscape:window-maximized="0" />
  <metadata
     id="metadata5">
    <rdf:RDF>
      <cc:Work
         rdf:about="">
        <dc:format>image/svg+xml</dc:format>
        <dc:type
           rdf:resource="http://purl.org/dc/dcmitype/StillImage" />
        <dc:title></dc:title>
      </cc:Work>
    </rdf:RDF>
  </metadata>
  <g
     inkscape:label="Layer 1"
     inkscape:groupmode="layer"
     id="layer1">
    <use
       xlink:href="#staff"
       id="use2316"
       x="0"
       y="0"
       width="100%"
       height="100%"
       transform="matrix(11.058087,0,0,6.0934474,-0.04682622,90.239337)" />
    <use
       xlink:href="#ms_g_clef"
       id="use1017"
       x="0"
       y="0"
       width="100%"
       height="100%"
       transform="matrix(5.2117364,0,0,6.5038414,21.966466,49.88043)" />
    <use
       xlink:href="#ms_sharp"
       id="use60"
       x="0"
       y="0"
       width="100%"
       height="100%"
       transform="matrix(5.849189,0,0,4.0791366,80.470751,63.621963)" />
    <use
       xlink:href="#ms_sharp"
       id="use60-1"
       x="0"
       y="0"
       width="100%"
       height="100%"
       transform="matrix(5.849189,0,0,4.0791366,96.218824,105.78464)" />
  </g>
</svg>
